HIERARCHY
ROOT Hips
{
  OFFSET 48.6694 95.778 16.5745
  CHANNELS 6 Xposition Yposition Zposition Zrotation Xrotation Yrotation
  JOINT spine
  {
    OFFSET 0 7.96568 0.458067
    CHANNELS 3 Zrotation Xrotation Yrotation
    JOINT spine1
    {
      OFFSET 0 10.2431 0
      CHANNELS 3 Zrotation Xrotation Yrotation
      JOINT spine2
      {
        OFFSET 0 9.81475 0
        CHANNELS 3 Zrotation Xrotation Yrotation
        JOINT Neck
        {
          OFFSET 0 25.1986 1.20138
          CHANNELS 3 Zrotation Xrotation Yrotation
          JOINT Head
          {
            OFFSET 0 7.61315 0
            CHANNELS 3 Zrotation Xrotation Yrotation
            End Site
            {
              OFFSET 0 18.4281 -6.07733
            }
          }
        }
        JOINT RightShoulder
        {
          OFFSET -4.1327 10.5992 -0.575451
          CHANNELS 3 Zrotation Xrotation Yrotation
          JOINT RightArm
          {
            OFFSET 0 13.9018 0
            CHANNELS 3 Zrotation Xrotation Yrotation
            JOINT RightArmRoll
            {
              OFFSET 0 7.01788 0
              CHANNELS 3 Zrotation Xrotation Yrotation
              JOINT RightForeArm
              {
                OFFSET 0 20.4406 0
                CHANNELS 3 Zrotation Xrotation Yrotation
                JOINT RightForeArmRoll
                {
                  OFFSET 0 7.87515 0
                  CHANNELS 3 Zrotation Xrotation Yrotation
                  JOINT RightHand
                  {
                    OFFSET 0 15.8037 0
                    CHANNELS 3 Zrotation Xrotation Yrotation
                    End Site
                    {
                      OFFSET 0 0 0
                    }
                  }
                }
              }
            }
          }
        }
        JOINT LeftShoulder
        {
          OFFSET 4.1327 10.5992 -0.575451
          CHANNELS 3 Zrotation Xrotation Yrotation
          JOINT LeftArm
          {
            OFFSET 0 13.9018 0
            CHANNELS 3 Zrotation Xrotation Yrotation
            JOINT LeftArmRoll
            {
              OFFSET 0 7.01788 0
              CHANNELS 3 Zrotation Xrotation Yrotation
              JOINT LeftForeArm
              {
                OFFSET 0 20.4406 0
                CHANNELS 3 Zrotation Xrotation Yrotation
                JOINT LeftForeArmRoll
                {
                  OFFSET 0 7.87515 0
                  CHANNELS 3 Zrotation Xrotation Yrotation
                  JOINT LeftHand
                  {
                    OFFSET 0 15.8037 0
                    CHANNELS 3 Zrotation Xrotation Yrotation
                    End Site
                    {
                      OFFSET 0 0 0
                    }
                  }
                }
              }
            }
          }
        }
      }
    }
  }
  JOINT RightUpLeg
  {
    OFFSET -7.06048 -1.2947 -1.0861
    CHANNELS 3 Zrotation Xrotation Yrotation
    JOINT RightUpLegRoll
    {
      OFFSET 0 18.5308 0
      CHANNELS 3 Zrotation Xrotation Yrotation
      JOINT RightLeg
      {
        OFFSET 0 -22.9476 0
        CHANNELS 3 Zrotation Xrotation Yrotation
        JOINT RightLegRoll
        {
          OFFSET 0 23.0226 0
          CHANNELS 3 Zrotation Xrotation Yrotation
          JOINT RightFoot
          {
            OFFSET 0 19.1625 0
            CHANNELS 3 Zrotation Xrotation Yrotation
            JOINT RightToeBase
            {
              OFFSET 0 16.0188 0
              CHANNELS 3 Zrotation Xrotation Yrotation
              End Site
              {
                OFFSET 0.00678979 7.75782 -0.894206
              }
            }
          }
        }
      }
    }
  }
  JOINT LeftUpLeg
  {
    OFFSET 7.06048 -1.2947 -1.0861
    CHANNELS 3 Zrotation Xrotation Yrotation
    JOINT LeftUpLegRoll
    {
      OFFSET 0 18.5309 0
      CHANNELS 3 Zrotation Xrotation Yrotation
      JOINT LeftLeg
      {
        OFFSET 0 22.9475 0
        CHANNELS 3 Zrotation Xrotation Yrotation
        JOINT LeftLegRoll
        {
          OFFSET 0 23.2355 0
          CHANNELS 3 Zrotation Xrotation Yrotation
          JOINT LeftFoot
          {
            OFFSET 0 18.9496 0
            CHANNELS 3 Zrotation Xrotation Yrotation
            JOINT LeftToeBase
            {
              OFFSET 0 16.0188 0
              CHANNELS 3 Zrotation Xrotation Yrotation
              End Site
              {
                OFFSET -0.0304289 7.75782 -0.894206
              }
            }
          }
        }
      }
    }
  }
}
MOTION
Frames: 6
Frame Time: 0.00208333
53.7139 78.9043 15.021 3.53343 6.21264 1.41283 -0.159314 -1.76225 0.261785 -0.312897 0.477584 0.539211 -0.319508 2.12261 0.544646 -10.1592 12.7423 1.13508 7.98878 -5.86662 -0.334142 7.48536 -13.6792 -11.793 10.1785 32.7856 105.874 -1.37935e-005 6.03191e-009 -4.16964e-007 -24.7315 53.6809 29.5044 -6.96439e-006 -8.15935e-007 -3 8.02991 -4.95139 0.697651 -19.3634 -13.2917 10.249 0.629913 30.9775 -97.5359 1.51368e-006 3.40017e-006 7.37527e-006 25.6827 56.2836 -28.596 6.10999e-006 -1.47028e-006 3 -8.03023 -4.95138 -0.697655 134.493 24.2458 27.7347 180 7.01666e-015 -179.779 179.867 50.6036 177.205 -7.89379e-007 1.71254e-006 -0.447335 -14.6509 79.3147 30.3456 8.15754 25.572 -3.07739 -153.602 33.4076 -11.5267 -1.0752e-005 -1.98656e-005 -0.383353 11.6005 -52.3223 8.25885 -6.63712e-007 -6.38428e-006 -1.34945 23.7119 81.6993 -38.1834 -8.16545 25.7024 2.94657 
53.5986 79.0147 15.0259 3.53662 6.09806 1.34446 -0.157269 -1.73184 0.26162 -0.30897 0.538409 0.538763 -0.315579 2.18343 0.544139 -10.2786 12.69 1.16102 8.14495 -6.0263 -0.300501 7.60917 -13.7061 -11.8221 10.41 32.9392 105.935 -1.37935e-005 6.03195e-009 -4.16964e-007 -24.7761 53.6847 29.5393 -6.96439e-006 -8.15935e-007 -3 8.02991 -4.95139 0.697651 -19.4793 -13.3005 10.2507 0.398577 30.9771 -97.2669 1.51368e-006 3.40017e-006 7.37527e-006 25.5665 56.016 -28.3643 6.10999e-006 -1.47028e-006 3 -8.03023 -4.95138 -0.697655 134.557 24.2319 27.643 180 7.01666e-015 -179.791 179.996 50.6001 177.145 -7.89379e-007 1.71254e-006 -0.431078 -14.6105 79.2597 30.2621 8.15766 25.5736 -3.07581 -153.532 33.1972 -11.5884 -1.0752e-005 -1.98656e-005 -0.36848 11.5029 -52.2535 8.21993 -6.63712e-007 -6.38427e-006 -1.30397 23.4691 81.7095 -38.0719 -8.16543 25.7015 2.9468 
53.6402 78.9296 15.0516 3.5341 5.98402 1.2795 -0.154789 -1.70304 0.260997 -0.304175 0.59603 0.537352 -0.310771 2.24105 0.542655 -10.3835 12.6438 1.18332 8.28901 -6.16625 -0.270223 7.74721 -13.7304 -11.8462 10.6461 33.1009 105.973 -1.37935e-005 6.0319e-009 -4.16964e-007 -24.8114 53.6819 29.5585 -6.96439e-006 -8.15935e-007 -3 8.02991 -4.95139 0.697651 -19.5968 -13.3073 10.2495 0.154124 30.9932 -96.9971 1.51368e-006 3.40017e-006 7.37527e-006 25.4547 55.7598 -28.1412 6.10999e-006 -1.47028e-006 3 -8.03023 -4.95138 -0.697655 134.644 24.2021 27.537 180 7.01667e-015 -179.804 -179.892 50.5683 177.097 -7.89379e-007 1.71254e-006 -0.412616 -14.5946 79.2025 30.1846 8.15776 25.5749 -3.07466 -153.463 32.974 -11.6508 -1.0752e-005 -1.98656e-005 -0.355544 11.389 -52.1555 8.16542 -6.63712e-007 -6.38426e-006 -1.26057 23.2161 81.7039 -37.9217 -8.16537 25.7 2.9477 
53.9072 78.9792 15.0436 3.52627 5.87276 1.21823 -0.152065 -1.6765 0.259767 -0.298889 0.649132 0.534697 -0.305456 2.29415 0.539917 -10.4712 12.6004 1.20154 8.41768 -6.27766 -0.243921 7.89961 -13.7505 -11.8628 10.8882 33.2696 105.981 -1.37935e-005 6.03193e-009 -4.16964e-007 -24.8358 53.6701 29.5591 -6.96439e-006 -8.15935e-007 -3 8.02991 -4.95139 0.697651 -19.7175 -13.3126 10.2463 -0.0997322 31.0276 -96.7325 1.51368e-006 3.40017e-006 7.37527e-006 25.348 55.5179 -27.9277 6.10999e-006 -1.47028e-006 3 -8.03023 -4.95138 -0.697655 134.752 24.1579 27.4194 180 7.01667e-015 -179.818 -179.799 50.509 177.062 -7.89379e-007 1.71255e-006 -0.392529 -14.6014 79.1432 30.1126 8.15784 25.5757 -3.07397 -153.396 32.7421 -11.7138 -1.0752e-005 -1.98656e-005 -0.344849 11.2601 -52.0303 8.09624 -6.63712e-007 -6.38425e-006 -1.22023 22.9603 81.6825 -37.7374 -8.16529 25.698 2.94928 
53.7129 78.9516 14.9994 3.51357 5.76647 1.16087 -0.149285 -1.65288 0.257781 -0.293488 0.696399 0.530517 -0.300005 2.34142 0.535651 -10.539 12.5562 1.21526 8.52772 -6.35173 -0.222212 8.06646 -13.7647 -11.8691 11.1377 33.4442 105.956 -1.37935e-005 6.03192e-009 -4.16964e-007 -24.8475 53.6468 29.5383 -6.96439e-006 -8.15935e-007 -3 8.02991 -4.95139 0.697651 -19.8428 -13.3172 10.2421 -0.3593 31.0821 -96.4786 1.51368e-006 3.40017e-006 7.37527e-006 25.2469 55.2928 -27.7253 6.10999e-006 -1.47028e-006 3 -8.03023 -4.95138 -0.697655 134.877 24.1007 27.293 180 7.01668e-015 -179.833 -179.728 50.4229 177.04 -7.89379e-007 1.71255e-006 -0.371395 -14.629 79.0821 30.0451 8.15789 25.5762 -3.07377 -153.331 32.5055 -11.7773 -1.0752e-005 -1.98656e-005 -0.336701 11.1178 -51.8798 8.01331 -6.63713e-007 -6.38423e-006 -1.1839 22.7094 81.6451 -37.5237 -8.16517 25.6955 2.95152 
53.6234 79.1366 15.0937 3.49641 5.66738 1.10768 -0.146638 -1.63283 0.254891 -0.288346 0.736515 0.524531 -0.294793 2.38154 0.529581 -10.5842 12.5075 1.22403 8.61583 -6.37965 -0.205711 8.24789 -13.7712 -11.8627 11.396 33.6234 105.891 -1.37935e-005 6.03191e-009 -4.16964e-007 -24.845 53.6096 29.4934 -6.96439e-006 -8.15935e-007 -3 8.02991 -4.95139 0.697651 -19.9744 -13.3216 10.2378 -0.620962 31.1587 -96.2411 1.51368e-006 3.40017e-006 7.37527e-006 25.152 55.0873 -27.5349 6.10999e-006 -1.47028e-006 3 -8.03023 -4.95138 -0.697655 135.017 24.0321 27.1606 180 7.01668e-015 -179.848 -179.681 50.3108 177.032 -7.89379e-007 1.71256e-006 -0.349796 -14.6754 79.0194 29.9816 8.1579 25.5762 -3.07409 -153.268 32.2683 -11.841 -1.0752e-005 -1.98656e-005 -0.331406 10.9636 -51.706 7.91761 -6.63713e-007 -6.38422e-006 -1.15255 22.4712 81.5914 -37.2856 -8.16502 25.6926 2.9544 
